<?xml version="1.0" standalone="no"?>
<!DOCTYPE svg PUBLIC "-//W3C//DTD SVG 20010904//EN"
 "http://www.w3.org/TR/2001/REC-SVG-20010904/DTD/svg10.dtd">
<svg version="1.0" xmlns="http://www.w3.org/2000/svg"
 width="639.000000pt" height="639.000000pt" viewBox="0 0 639.000000 639.000000"
 preserveAspectRatio="xMidYMid meet">
<metadata>
Created by potrace 1.11, written by Peter Selinger 2001-2013
</metadata>
<g transform="translate(0.000000,639.000000) scale(0.100000,-0.100000)"
fill="#000000" stroke="none">
<path d="M711 4573 l-689 -1378 687 -1372 686 -1373 1817 0 1818 0 680 1360
c425 850 680 1370 679 1387 0 16 -295 616 -682 1388 l-682 1360 -1812 3 -1813
2 -689 -1377z m2491 -325 l3 -803 1198 -3 1197 -2 0 -245 0 -245 -1197 -2
-1198 -3 -3 -803 -2 -802 -240 0 -240 0 0 1855 0 1855 240 0 240 0 2 -802z
m-1600 -587 c124 -48 240 -164 289 -289 20 -48 23 -76 23 -177 0 -101 -3 -129
-23 -177 -49 -125 -165 -241 -289 -289 -86 -34 -245 -38 -331 -9 -116 39 -224
126 -283 230 -85 148 -85 342 0 490 58 101 165 190 278 230 82 28 252 24 336
-9z"/>
</g>
</svg>
